<svg width="110" height="45" viewBox="0 0 110 45" fill="none" xmlns="http://www.w3.org/2000/svg">
<path d="M0 5.625C0 2.5184 4.10406 0 9.16667 0H100.833C105.896 0 110 2.5184 110 5.625V39.375C110 42.4816 105.896 45 100.833 45H9.16666C4.10405 45 0 42.4816 0 39.375V5.625Z" fill="white"/>
<path d="M85.2739 35.3369C89.4987 35.3369 91.4872 34.3477 93.2241 31.3492L100.833 18.2528H96.4277L91.3251 28.385H91.2356L86.133 18.2665H81.6025L88.9434 30.7317L88.5501 31.4899C88.2725 32.5751 86.6846 33.3494 84.8974 33.2693C84.5564 33.2693 83.8948 33.2476 83.6264 33.2258V35.2843C84.1725 35.3301 84.7241 35.3518 85.2739 35.3506V35.3369ZM70.5922 28.7784C68.2813 28.7784 66.8146 28.0923 66.8146 27.0539C66.8146 25.9778 68.2291 25.3511 70.9332 25.2516L75.7489 25.0652V26.0327C75.6426 27.6268 73.4491 28.8676 70.8512 28.8024C70.7636 28.8001 70.6779 28.7956 70.5922 28.791V28.7784ZM69.4293 30.8106C72.0514 30.854 74.5039 30.0158 75.8215 28.624H75.911V30.6825H79.9215V22.157C79.9215 19.6846 76.6993 18.0916 71.7383 18.0916C67.137 18.0916 63.734 19.7063 63.6092 21.926H67.5135C67.9794 20.7973 69.7275 20.0528 71.6135 20.1786C74.2635 20.1786 75.7489 20.9368 75.7489 22.332V23.2766L70.3443 23.4744C65.3125 23.6608 62.5916 24.9245 62.5916 27.1225C62.5879 29.3514 65.3982 30.8232 69.4274 30.8232L69.4293 30.8106ZM46.1879 15.7918H51.1825C54.9433 15.7918 57.092 17.0223 57.092 19.1871C57.092 21.3519 54.9433 22.5927 51.1657 22.5927H46.1879V15.7918ZM41.855 13.5504V30.6791H46.1879V24.8399H52.187C57.0734 25.0011 61.2461 22.7014 61.5088 19.7029C61.5238 19.5325 61.5256 19.3632 61.5144 19.1928C61.7455 16.2275 58.0164 13.7093 53.184 13.5664C52.8989 13.5584 52.6156 13.5595 52.3305 13.5675L41.855 13.5504ZM27.4734 16.7467C24.9835 16.6586 22.8534 17.6147 21.6719 17.6147C20.4903 17.6147 18.664 16.7913 16.6941 16.8142C14.085 16.8553 11.707 17.7416 10.4454 19.1437C7.75986 21.9786 9.7465 26.1756 12.3425 28.4822C13.6135 29.6258 15.138 30.8781 17.1414 30.8335C19.0386 30.79 19.7915 30.0753 22.0837 30.0753C24.376 30.0753 25.0562 30.8335 27.0615 30.8106C29.1376 30.7889 30.4458 29.667 31.7206 28.5234C32.6188 27.7137 33.3177 26.8275 33.7967 25.8931C31.3497 25.2367 29.7638 23.7581 29.7507 22.1193C29.788 20.6738 31.0217 19.3404 33.027 18.5822C31.7485 17.4683 29.6967 16.7844 27.4771 16.7364L27.4734 16.7467ZM25.9191 15.2337C24.8289 16.0766 23.1609 16.5603 21.4072 16.5409C21.2954 15.491 21.8769 14.4584 23.0193 13.6739C24.1561 12.8642 25.7588 12.3565 27.492 12.257C27.615 13.3365 27.0503 14.4023 25.9154 15.2303" fill="black"/>
</svg>
