<svg width="110" height="45" viewBox="0 0 110 45" fill="none" xmlns="http://www.w3.org/2000/svg">
<path d="M0 5.625C0 2.5184 4.10406 0 9.16667 0H100.833C105.896 0 110 2.5184 110 5.625V39.375C110 42.4816 105.896 45 100.833 45H9.16666C4.10405 45 0 42.4816 0 39.375V5.625Z" fill="white"/>
<path d="M82.5 22.5071C82.4942 31.8274 70.1755 39.3795 54.9884 39.375C39.8013 39.3714 27.4942 31.8131 27.5 22.4929C27.5058 13.1762 39.8143 5.62589 54.9971 5.625C70.1857 5.62411 82.4985 13.1797 82.5 22.5V22.5071Z" fill="black"/>
<path d="M60.0131 19.2266C60.0131 21.3831 54.4959 21.1314 52.7402 21.1314V17.3201C54.4959 17.3183 60.0058 16.9755 60.0058 19.2248L60.0131 19.2266ZM61.4589 25.1551C61.4589 27.5249 54.8479 27.2553 52.7388 27.2562V23.054C54.8479 23.0531 61.4604 22.6809 61.4604 25.1533L61.4589 25.1551ZM65.811 18.3715C65.4575 16.1106 62.2764 15.3528 58.2618 15.1368V12.0012H55.1519V15.0547C54.3344 15.0547 53.4981 15.0645 52.6675 15.0752V12.0021H49.5591V15.1368C48.8856 15.1449 48.2238 15.1529 47.5794 15.1529V15.1431H43.2885V17.1844C43.2885 17.1844 45.5852 17.1576 45.5474 17.1844C46.4158 17.1157 47.2144 17.4888 47.3365 18.0207V21.591C47.4456 21.591 47.5562 21.5955 47.6653 21.6044H47.3365V26.6091C47.3002 26.9813 46.7809 27.2642 46.1758 27.2419H46.1729C46.2122 27.2633 43.9125 27.2419 43.9125 27.2419L43.2943 29.5216H47.3424C48.0958 29.5216 48.8362 29.5296 49.5635 29.5332V32.7045H52.6704V29.5662C53.5228 29.5769 54.349 29.5814 55.1548 29.5814V32.7054H58.2603V29.5394C63.4967 29.3555 67.1506 28.5469 67.6044 25.5335C67.971 23.1066 66.1106 22.0239 63.1433 21.5866C65.12 21.0118 66.2153 19.6907 65.811 18.3715Z" fill="white"/>
</svg>
