<svg width="110" height="45" viewBox="0 0 110 45" fill="none" xmlns="http://www.w3.org/2000/svg">
<path d="M0 5.625C0 2.5184 4.10406 0 9.16667 0H100.833C105.896 0 110 2.5184 110 5.625V39.375C110 42.4816 105.896 45 100.833 45H9.16666C4.10405 45 0 42.4816 0 39.375V5.625Z" fill="white"/>
<path d="M94.6686 14.1117H88.9059C87.1637 14.1117 85.8236 14.4406 85.0195 15.5097L74.0302 30.888H81.8031C81.8031 30.888 83.1433 28.8321 83.4113 28.3387C84.2154 28.3387 91.8543 28.3387 92.9264 28.3387C93.1944 28.9143 93.8645 30.8058 93.8645 30.8058H100.833L94.6686 14.1117ZM85.5556 24.8847C86.2256 23.8979 88.5039 20.1972 88.5039 20.1972C88.5039 20.2795 89.174 19.2104 89.442 18.6347L89.9781 20.115C89.9781 20.115 91.4522 24.1446 91.7203 24.967H85.5556V24.8847Z" fill="black"/>
<path d="M74.5663 25.3783C74.5663 28.8322 69.4737 31.1348 61.5668 31.1348C58.2164 31.1348 55 30.7237 53.2578 30.2302L54.3299 26.4473L55.268 26.6941C57.6803 27.352 59.2885 27.5987 62.2369 27.5987C64.3811 27.5987 66.6594 27.1052 66.6594 25.9539C66.6594 25.2138 65.7213 24.7204 62.7729 23.898C59.9586 23.0756 56.2062 21.7598 56.2062 19.375C56.2062 16.0855 61.4328 13.8651 68.8036 13.8651C71.6179 13.8651 74.0302 14.1941 75.5044 14.6052L74.4323 18.2237L73.8962 17.8947C72.5561 17.5658 70.8138 17.2368 68.2676 17.2368C65.4532 17.3191 64.1131 18.0592 64.1131 18.7171C64.1131 19.4572 65.7213 20.0329 68.2676 20.773C72.5561 22.0066 74.5663 23.4046 74.5663 25.3783Z" fill="black"/>
<path d="M9.16669 14.2765L9.3007 13.9475H20.826C22.4342 13.9475 23.6404 14.2765 24.0424 15.3455L26.5887 22.7469C24.0424 18.7995 18.1457 15.5922 9.16669 14.2765Z" fill="#787878"/>
<path d="M42.8047 14.1118L31.1454 30.8059H23.2384L16.5377 16.8256C21.3622 18.717 25.3827 21.6776 26.8569 23.7335L27.661 25.4605L34.8978 14.0295H42.8047V14.1118Z" fill="black"/>
<path d="M45.8869 14.0295H53.2578L48.5672 30.8059H41.1964L45.8869 14.0295Z" fill="black"/>
</svg>
